<svg xmlns="http://www.w3.org/2000/svg" width="1500" height="760" viewBox="0 0 1500 760" role="img" aria-labelledby="title desc"><title id="title">TitanCore Platform Framework Archive architecture</title><desc id="desc">A versioned TitanCore module exposes contracts, provider registration, manifests, health and repair services, with tests and provenance review.</desc><defs><linearGradient id="bg" x1="0" y1="0" x2="1" y2="1"><stop stop-color="#101b2a"/><stop offset="1" stop-color="#486078"/></linearGradient><marker id="a" markerWidth="10" markerHeight="10" refX="9" refY="5" orient="auto"><path d="M0 0L10 5L0 10" fill="#9cdded"/></marker><style>.e{font:700 13px Segoe UI,Arial;letter-spacing:2px;fill:#9cdded}.t{font:700 32px Segoe UI,Arial;fill:#f7fbff}.s{font:400 15px Segoe UI,Arial;fill:#d6e7ef}.n{fill:#263f57;stroke:#6f92a9;stroke-width:2}.g{fill:#2e5f70;stroke:#9cdded;stroke-width:2}.y{fill:#51432c;stroke:#f0c275;stroke-width:2}.l{font:700 16px Segoe UI,Arial;fill:#fff}.b{font:400 13px Segoe UI,Arial;fill:#d3e2ea}.q{font:400 12px Segoe UI,Arial;fill:#bfd0da}.r{stroke:#9cdded;stroke-width:3;fill:none;marker-end:url(#a)}</style></defs><rect width="1500" height="760" rx="26" fill="url(#bg)"/><text x="64" y="58" class="e">TITANCORE V1.9 � FRAMEWORK MAP</text><text x="64" y="106" class="t">Manifests make framework capabilities inspectable and repairable</text><text x="64" y="136" class="s">Source-backed from TitanCore_V1.9/{Contracts, Providers, manifests, Health, Repair, Tests}.</text><rect x="70" y="220" width="260" height="130" rx="16" class="n"/><text x="200" y="260" text-anchor="middle" class="l">TitanCore + TitanSDK</text><text x="200" y="290" text-anchor="middle" class="b">contracts + namespaces</text><text x="200" y="318" text-anchor="middle" class="q">versioned module source</text><path d="M330 285H440" class="r"/><rect x="440" y="220" width="260" height="130" rx="16" class="g"/><text x="570" y="260" text-anchor="middle" class="l">Providers + Filament</text><text x="570" y="290" text-anchor="middle" class="b">boot + admin surfaces</text><text x="570" y="318" text-anchor="middle" class="q">routes + migrations</text><path d="M700 285H810" class="r"/><rect x="810" y="220" width="260" height="130" rx="16" class="g"/><text x="940" y="260" text-anchor="middle" class="l">Manifest registry</text><text x="940" y="290" text-anchor="middle" class="b">capabilities + health</text><text x="940" y="318" text-anchor="middle" class="q">repair recipes</text><path d="M1070 285H1180" class="r"/><rect x="1180" y="220" width="250" height="130" rx="16" class="y"/><text x="1305" y="260" text-anchor="middle" class="l">Evidence</text><text x="1305" y="290" text-anchor="middle" class="b">tests + provenance</text><text x="1305" y="318" text-anchor="middle" class="q">readiness unverified</text><rect x="440" y="520" width="630" height="92" rx="16" class="n"/><text x="755" y="557" text-anchor="middle" class="l">Framework archive boundary</text><text x="755" y="584" text-anchor="middle" class="q">inspect manifests and licenses before reuse or redistribution</text></svg>

