<svg xmlns="http://www.w3.org/2000/svg" width="1200" height="360" viewBox="0 0 1200 360" role="img" aria-labelledby="title desc"><title id="title">TitanCore Platform Framework Archive</title><desc id="desc">A steel blue and gold framework banner showing module manifests, providers, health checks, and safe repair.</desc><defs><linearGradient id="bg" x1="0" y1="0" x2="1" y2="1"><stop stop-color="#101b2a"/><stop offset="1" stop-color="#486078"/></linearGradient><pattern id="grid" width="32" height="32" patternUnits="userSpaceOnUse"><path d="M32 0H0V32" fill="none" stroke="#fff" stroke-opacity=".07"/></pattern><style>.t{font:700 41px Segoe UI,Arial;fill:#f7fbff}.s{font:600 15px Segoe UI,Arial;letter-spacing:2.3px;fill:#d6e7ef}.e{font:700 12px Segoe UI,Arial;letter-spacing:2.3px;fill:#9cdded}.l{font:700 12px Segoe UI,Arial;fill:#fff}.q{font:400 11px Segoe UI,Arial;fill:#c1d3de}</style></defs><rect width="1200" height="360" rx="22" fill="url(#bg)"/><rect width="1200" height="360" rx="22" fill="url(#grid)"/><circle cx="1090" cy="35" r="220" fill="#f0c275" opacity=".11"/><text x="70" y="66" class="e">TITANCORE � FRAMEWORK SOURCE � LEGACY SNAPSHOT</text><text x="70" y="125" class="t">TitanCore Platform Framework Archive</text><text x="72" y="160" class="s">MANIFESTS    PROVIDERS    HEALTH CHECKS    SAFE REPAIR</text><path d="M110 245H1090" stroke="#7091a6" stroke-width="2"/><path d="M144 245H1050" stroke="#9cdded" stroke-width="3"/><g><circle cx="144" cy="245" r="24" fill="#294a64" stroke="#9cdded" stroke-width="2"/><text x="144" y="250" text-anchor="middle" class="l">01</text><text x="144" y="292" text-anchor="middle" class="l">Module</text><text x="144" y="312" text-anchor="middle" class="q">TitanCore + SDK</text><circle cx="383" cy="245" r="24" fill="#294a64" stroke="#9cdded" stroke-width="2"/><text x="383" y="250" text-anchor="middle" class="l">02</text><text x="383" y="292" text-anchor="middle" class="l">Provider</text><text x="383" y="312" text-anchor="middle" class="q">Laravel registration</text><circle cx="622" cy="245" r="24" fill="#294a64" stroke="#9cdded" stroke-width="2"/><text x="622" y="250" text-anchor="middle" class="l">03</text><text x="622" y="292" text-anchor="middle" class="l">Health</text><text x="622" y="312" text-anchor="middle" class="q">checks + capabilities</text><circle cx="861" cy="245" r="24" fill="#294a64" stroke="#9cdded" stroke-width="2"/><text x="861" y="250" text-anchor="middle" class="l">04</text><text x="861" y="292" text-anchor="middle" class="l">Repair</text><text x="861" y="312" text-anchor="middle" class="q">manifest-driven</text><circle cx="1050" cy="245" r="24" fill="#51432c" stroke="#f0c275" stroke-width="2"/><text x="1050" y="250" text-anchor="middle" class="l">05</text><text x="1050" y="292" text-anchor="middle" class="l">Lineage</text><text x="1050" y="312" text-anchor="middle" class="q">readiness unverified</text></g><text x="70" y="342" class="q">Historical framework source � preserve provenance before reuse</text></svg>

